STARTFONT 2.1
FONT -Tecnica-55-Regular-R-Regular--9-9-75-75-c-80-iso10646-1
SIZE 9 75 75
FONTBOUNDINGBOX 18 9 -7 -2
STARTPROPERTIES 10
FAMILY_NAME "Tecnica-55"
WEIGHT_NAME "Regular"
FONT_VERSION "Version 1.000"
COPYRIGHT "Copyright (c) 2024 by Davide Piscitelli (https://github.com/Davide-Piscitelli/Tecnica-Typeface.git)."
FOUNDRY "FreeType"
FONT_ASCENT 7
FONT_DESCENT 2
POINT_SIZE 9
X_HEIGHT 4
CAP_HEIGHT 5
ENDPROPERTIES
CHARS 398
STARTCHAR U+0000
ENCODING 0
SWIDTH 333 0
DWIDTH 6 0
BBX 5 5 0 0
BITMAP
F8
F8
F8
F8
F8
ENDCHAR
STARTCHAR U+0020
ENCODING 32
SWIDTH 166 0
DWIDTH 3 0
BBX 0 0 0 0
BITMAP
ENDCHAR
STARTCHAR U+0021
ENCODING 33
SWIDTH 111 0
DWIDTH 2 0
BBX 1 5 0 0
BITMAP
80
80
80
00
80
ENDCHAR
STARTCHAR U+0022
ENCODING 34
SWIDTH 222 0
DWIDTH 4 0
BBX 3 3 0 2
BITMAP
A0
A0
A0
ENDCHAR
STARTCHAR U+0023
ENCODING 35
SWIDTH 333 0
DWIDTH 6 0
BBX 5 5 0 0
BITMAP
50
F8
50
F8
50
ENDCHAR
STARTCHAR U+0024
ENCODING 36
SWIDTH 333 0
DWIDTH 6 0
BBX 5 5 0 0
BITMAP
78
A0
70
28
F0
ENDCHAR
STARTCHAR U+0025
ENCODING 37
SWIDTH 333 0
DWIDTH 6 0
BBX 5 5 0 0
BITMAP
C8
D0
20
58
98
ENDCHAR
STARTCHAR U+0026
ENCODING 38
SWIDTH 333 0
DWIDTH 6 0
BBX 5 5 0 0
BITMAP
70
80
78
90
70
ENDCHAR
STARTCHAR U+0027
ENCODING 39
SWIDTH 111 0
DWIDTH 2 0
BBX 1 3 0 2
BITMAP
80
80
80
ENDCHAR
STARTCHAR U+0028
ENCODING 40
SWIDTH 222 0
DWIDTH 4 0
BBX 3 6 0 -1
BITMAP
60
80
80
80
80
60
ENDCHAR
STARTCHAR U+0029
ENCODING 41
SWIDTH 222 0
DWIDTH 4 0
BBX 3 6 0 -1
BITMAP
C0
20
20
20
20
C0
ENDCHAR
STARTCHAR U+002A
ENCODING 42
SWIDTH 222 0
DWIDTH 4 0
BBX 3 3 0 2
BITMAP
A0
40
A0
ENDCHAR
STARTCHAR U+002B
ENCODING 43
SWIDTH 222 0
DWIDTH 4 0
BBX 3 3 0 1
BITMAP
40
E0
40
ENDCHAR
STARTCHAR U+002C
ENCODING 44
SWIDTH 166 0
DWIDTH 3 0
BBX 2 3 0 -1
BITMAP
40
40
80
ENDCHAR
STARTCHAR U+002D
ENCODING 45
SWIDTH 222 0
DWIDTH 4 0
BBX 3 1 0 2
BITMAP
E0
ENDCHAR
STARTCHAR U+002E
ENCODING 46
SWIDTH 111 0
DWIDTH 2 0
BBX 1 2 0 0
BITMAP
80
80
ENDCHAR
STARTCHAR U+002F
ENCODING 47
SWIDTH 333 0
DWIDTH 6 0
BBX 5 5 0 0
BITMAP
08
10
20
40
80
ENDCHAR
STARTCHAR U+0030
ENCODING 48
SWIDTH 333 0
DWIDTH 6 0
BBX 5 5 0 0
BITMAP
70
88
A8
88
70
ENDCHAR
STARTCHAR U+0031
ENCODING 49
SWIDTH 222 0
DWIDTH 4 0
BBX 3 5 0 0
BITMAP
C0
40
40
40
E0
ENDCHAR
STARTCHAR U+0032
ENCODING 50
SWIDTH 333 0
DWIDTH 6 0
BBX 5 5 0 0
BITMAP
70
88
30
40
F8
ENDCHAR
STARTCHAR U+0033
ENCODING 51
SWIDTH 333 0
DWIDTH 6 0
BBX 5 5 0 0
BITMAP
F8
10
30
88
70
ENDCHAR
STARTCHAR U+0034
ENCODING 52
SWIDTH 333 0
DWIDTH 6 0
BBX 5 5 0 0
BITMAP
30
50
90
F8
10
ENDCHAR
STARTCHAR U+0035
ENCODING 53
SWIDTH 333 0
DWIDTH 6 0
BBX 5 5 0 0
BITMAP
F8
80
F0
08
F0
ENDCHAR
STARTCHAR U+0036
ENCODING 54
SWIDTH 333 0
DWIDTH 6 0
BBX 5 5 0 0
BITMAP
78
80
F0
88
70
ENDCHAR
STARTCHAR U+0037
ENCODING 55
SWIDTH 333 0
DWIDTH 6 0
BBX 5 5 0 0
BITMAP
F8
08
10
20
20
ENDCHAR
STARTCHAR U+0038
ENCODING 56
SWIDTH 333 0
DWIDTH 6 0
BBX 5 5 0 0
BITMAP
70
88
70
88
70
ENDCHAR
STARTCHAR U+0039
ENCODING 57
SWIDTH 333 0
DWIDTH 6 0
BBX 5 5 0 0
BITMAP
70
88
78
08
F0
ENDCHAR
STARTCHAR U+003A
ENCODING 58
SWIDTH 111 0
DWIDTH 2 0
BBX 1 5 0 0
BITMAP
80
80
00
80
80
ENDCHAR
STARTCHAR U+003B
ENCODING 59
SWIDTH 166 0
DWIDTH 3 0
BBX 2 6 0 -1
BITMAP
40
40
00
40
40
80
ENDCHAR
STARTCHAR U+003C
ENCODING 60
SWIDTH 222 0
DWIDTH 4 0
BBX 3 3 0 1
BITMAP
60
80
60
ENDCHAR
STARTCHAR U+003D
ENCODING 61
SWIDTH 222 0
DWIDTH 4 0
BBX 3 3 0 1
BITMAP
E0
00
E0
ENDCHAR
STARTCHAR U+003E
ENCODING 62
SWIDTH 222 0
DWIDTH 4 0
BBX 3 3 0 1
BITMAP
C0
20
C0
ENDCHAR
STARTCHAR U+003F
ENCODING 63
SWIDTH 333 0
DWIDTH 6 0
BBX 5 5 0 0
BITMAP
70
88
30
00
20
ENDCHAR
STARTCHAR U+0040
ENCODING 64
SWIDTH 333 0
DWIDTH 6 0
BBX 5 5 0 0
BITMAP
70
88
68
A8
70
ENDCHAR
STARTCHAR U+0041
ENCODING 65
SWIDTH 333 0
DWIDTH 6 0
BBX 5 5 0 0
BITMAP
70
88
F8
88
88
ENDCHAR
STARTCHAR U+0042
ENCODING 66
SWIDTH 333 0
DWIDTH 6 0
BBX 5 5 0 0
BITMAP
F0
88
F0
88
F0
ENDCHAR
STARTCHAR U+0043
ENCODING 67
SWIDTH 333 0
DWIDTH 6 0
BBX 5 5 0 0
BITMAP
70
88
80
88
70
ENDCHAR
STARTCHAR U+0044
ENCODING 68
SWIDTH 333 0
DWIDTH 6 0
BBX 5 5 0 0
BITMAP
F0
88
88
88
F0
ENDCHAR
STARTCHAR U+0045
ENCODING 69
SWIDTH 333 0
DWIDTH 6 0
BBX 5 5 0 0
BITMAP
F8
80
F0
80
F8
ENDCHAR
STARTCHAR U+0046
ENCODING 70
SWIDTH 333 0
DWIDTH 6 0
BBX 5 5 0 0
BITMAP
F8
80
F0
80
80
ENDCHAR
STARTCHAR U+0047
ENCODING 71
SWIDTH 333 0
DWIDTH 6 0
BBX 5 5 0 0
BITMAP
78
80
B8
88
70
ENDCHAR
STARTCHAR U+0048
ENCODING 72
SWIDTH 333 0
DWIDTH 6 0
BBX 5 5 0 0
BITMAP
88
88
F8
88
88
ENDCHAR
STARTCHAR U+0049
ENCODING 73
SWIDTH 222 0
DWIDTH 4 0
BBX 3 5 0 0
BITMAP
E0
40
40
40
E0
ENDCHAR
STARTCHAR U+004A
ENCODING 74
SWIDTH 333 0
DWIDTH 6 0
BBX 5 5 0 0
BITMAP
08
08
08
88
70
ENDCHAR
STARTCHAR U+004B
ENCODING 75
SWIDTH 333 0
DWIDTH 6 0
BBX 5 5 0 0
BITMAP
88
90
A0
D0
88
ENDCHAR
STARTCHAR U+004C
ENCODING 76
SWIDTH 333 0
DWIDTH 6 0
BBX 5 5 0 0
BITMAP
80
80
80
80
F8
ENDCHAR
STARTCHAR U+004D
ENCODING 77
SWIDTH 333 0
DWIDTH 6 0
BBX 5 5 0 0
BITMAP
88
D8
A8
88
88
ENDCHAR
STARTCHAR U+004E
ENCODING 78
SWIDTH 333 0
DWIDTH 6 0
BBX 5 5 0 0
BITMAP
88
C8
A8
98
88
ENDCHAR
STARTCHAR U+004F
ENCODING 79
SWIDTH 333 0
DWIDTH 6 0
BBX 5 5 0 0
BITMAP
70
88
88
88
70
ENDCHAR
STARTCHAR U+0050
ENCODING 80
SWIDTH 333 0
DWIDTH 6 0
BBX 5 5 0 0
BITMAP
F0
88
F0
80
80
ENDCHAR
STARTCHAR U+0051
ENCODING 81
SWIDTH 333 0
DWIDTH 6 0
BBX 5 5 0 0
BITMAP
70
88
88
90
68
ENDCHAR
STARTCHAR U+0052
ENCODING 82
SWIDTH 333 0
DWIDTH 6 0
BBX 5 5 0 0
BITMAP
F0
88
F0
90
88
ENDCHAR
STARTCHAR U+0053
ENCODING 83
SWIDTH 333 0
DWIDTH 6 0
BBX 5 5 0 0
BITMAP
78
80
70
08
F0
ENDCHAR
STARTCHAR U+0054
ENCODING 84
SWIDTH 333 0
DWIDTH 6 0
BBX 5 5 0 0
BITMAP
F8
20
20
20
20
ENDCHAR
STARTCHAR U+0055
ENCODING 85
SWIDTH 333 0
DWIDTH 6 0
BBX 5 5 0 0
BITMAP
88
88
88
88
70
ENDCHAR
STARTCHAR U+0056
ENCODING 86
SWIDTH 333 0
DWIDTH 6 0
BBX 5 5 0 0
BITMAP
88
88
88
50
20
ENDCHAR
STARTCHAR U+0057
ENCODING 87
SWIDTH 333 0
DWIDTH 6 0
BBX 5 5 0 0
BITMAP
88
88
A8
A8
50
ENDCHAR
STARTCHAR U+0058
ENCODING 88
SWIDTH 333 0
DWIDTH 6 0
BBX 5 5 0 0
BITMAP
88
50
20
50
88
ENDCHAR
STARTCHAR U+0059
ENCODING 89
SWIDTH 333 0
DWIDTH 6 0
BBX 5 5 0 0
BITMAP
88
50
20
20
20
ENDCHAR
STARTCHAR U+005A
ENCODING 90
SWIDTH 333 0
DWIDTH 6 0
BBX 5 5 0 0
BITMAP
F8
10
20
40
F8
ENDCHAR
STARTCHAR U+005B
ENCODING 91
SWIDTH 222 0
DWIDTH 4 0
BBX 3 6 0 -1
BITMAP
E0
80
80
80
80
E0
ENDCHAR
STARTCHAR U+005C
ENCODING 92
SWIDTH 333 0
DWIDTH 6 0
BBX 5 5 0 0
BITMAP
80
40
20
10
08
ENDCHAR
STARTCHAR U+005D
ENCODING 93
SWIDTH 222 0
DWIDTH 4 0
BBX 3 6 0 -1
BITMAP
E0
20
20
20
20
E0
ENDCHAR
STARTCHAR U+005E
ENCODING 94
SWIDTH 333 0
DWIDTH 6 0
BBX 5 3 0 2
BITMAP
20
50
88
ENDCHAR
STARTCHAR U+005F
ENCODING 95
SWIDTH 333 0
DWIDTH 6 0
BBX 5 1 0 -1
BITMAP
F8
ENDCHAR
STARTCHAR U+0060
ENCODING 96
SWIDTH 166 0
DWIDTH 3 0
BBX 2 2 0 4
BITMAP
80
40
ENDCHAR
STARTCHAR U+0061
ENCODING 97
SWIDTH 277 0
DWIDTH 5 0
BBX 4 4 0 0
BITMAP
70
90
90
70
ENDCHAR
STARTCHAR U+0062
ENCODING 98
SWIDTH 277 0
DWIDTH 5 0
BBX 4 5 0 0
BITMAP
80
E0
90
90
E0
ENDCHAR
STARTCHAR U+0063
ENCODING 99
SWIDTH 277 0
DWIDTH 5 0
BBX 4 4 0 0
BITMAP
60
90
80
70
ENDCHAR
STARTCHAR U+0064
ENCODING 100
SWIDTH 277 0
DWIDTH 5 0
BBX 4 5 0 0
BITMAP
10
70
90
90
70
ENDCHAR
STARTCHAR U+0065
ENCODING 101
SWIDTH 277 0
DWIDTH 5 0
BBX 4 4 0 0
BITMAP
60
F0
80
70
ENDCHAR
STARTCHAR U+0066
ENCODING 102
SWIDTH 277 0
DWIDTH 5 0
BBX 4 5 0 0
BITMAP
70
E0
40
40
40
ENDCHAR
STARTCHAR U+0067
ENCODING 103
SWIDTH 277 0
DWIDTH 5 0
BBX 4 5 0 -1
BITMAP
70
90
90
70
E0
ENDCHAR
STARTCHAR U+0068
ENCODING 104
SWIDTH 277 0
DWIDTH 5 0
BBX 4 5 0 0
BITMAP
80
E0
90
90
90
ENDCHAR
STARTCHAR U+0069
ENCODING 105
SWIDTH 222 0
DWIDTH 4 0
BBX 3 5 0 0
BITMAP
40
C0
40
40
E0
ENDCHAR
STARTCHAR U+006A
ENCODING 106
SWIDTH 222 0
DWIDTH 4 0
BBX 3 6 0 -1
BITMAP
20
60
20
20
20
C0
ENDCHAR
STARTCHAR U+006B
ENCODING 107
SWIDTH 277 0
DWIDTH 5 0
BBX 4 5 0 0
BITMAP
80
90
A0
E0
90
ENDCHAR
STARTCHAR U+006C
ENCODING 108
SWIDTH 222 0
DWIDTH 4 0
BBX 3 5 0 0
BITMAP
C0
40
40
40
20
ENDCHAR
STARTCHAR U+006D
ENCODING 109
SWIDTH 333 0
DWIDTH 6 0
BBX 5 4 0 0
BITMAP
F0
A8
A8
A8
ENDCHAR
STARTCHAR U+006E
ENCODING 110
SWIDTH 277 0
DWIDTH 5 0
BBX 4 4 0 0
BITMAP
E0
90
90
90
ENDCHAR
STARTCHAR U+006F
ENCODING 111
SWIDTH 277 0
DWIDTH 5 0
BBX 4 4 0 0
BITMAP
60
90
90
60
ENDCHAR
STARTCHAR U+0070
ENCODING 112
SWIDTH 277 0
DWIDTH 5 0
BBX 4 5 0 -1
BITMAP
E0
90
90
E0
80
ENDCHAR
STARTCHAR U+0071
ENCODING 113
SWIDTH 277 0
DWIDTH 5 0
BBX 4 5 0 -1
BITMAP
70
90
90
70
10
ENDCHAR
STARTCHAR U+0072
ENCODING 114
SWIDTH 277 0
DWIDTH 5 0
BBX 4 4 0 0
BITMAP
E0
90
80
80
ENDCHAR
STARTCHAR U+0073
ENCODING 115
SWIDTH 277 0
DWIDTH 5 0
BBX 4 4 0 0
BITMAP
70
E0
10
E0
ENDCHAR
STARTCHAR U+0074
ENCODING 116
SWIDTH 277 0
DWIDTH 5 0
BBX 4 5 0 0
BITMAP
40
F0
40
40
30
ENDCHAR
STARTCHAR U+0075
ENCODING 117
SWIDTH 277 0
DWIDTH 5 0
BBX 4 4 0 0
BITMAP
90
90
90
70
ENDCHAR
STARTCHAR U+0076
ENCODING 118
SWIDTH 277 0
DWIDTH 5 0
BBX 4 4 0 0
BITMAP
90
90
50
30
ENDCHAR
STARTCHAR U+0077
ENCODING 119
SWIDTH 333 0
DWIDTH 6 0
BBX 5 4 0 0
BITMAP
A8
A8
A8
50
ENDCHAR
STARTCHAR U+0078
ENCODING 120
SWIDTH 277 0
DWIDTH 5 0
BBX 4 4 0 0
BITMAP
90
60
60
90
ENDCHAR
STARTCHAR U+0079
ENCODING 121
SWIDTH 277 0
DWIDTH 5 0
BBX 4 5 0 -1
BITMAP
90
90
50
30
E0
ENDCHAR
STARTCHAR U+007A
ENCODING 122
SWIDTH 277 0
DWIDTH 5 0
BBX 4 4 0 0
BITMAP
F0
20
40
F0
ENDCHAR
STARTCHAR U+007B
ENCODING 123
SWIDTH 222 0
DWIDTH 4 0
BBX 3 6 0 -1
BITMAP
60
40
C0
C0
40
60
ENDCHAR
STARTCHAR U+007C
ENCODING 124
SWIDTH 111 0
DWIDTH 2 0
BBX 1 6 0 -1
BITMAP
80
80
80
80
80
80
ENDCHAR
STARTCHAR U+007D
ENCODING 125
SWIDTH 222 0
DWIDTH 4 0
BBX 3 6 0 -1
BITMAP
C0
40
60
60
40
C0
ENDCHAR
STARTCHAR U+007E
ENCODING 126
SWIDTH 333 0
DWIDTH 6 0
BBX 5 3 0 1
BITMAP
40
A8
10
ENDCHAR
STARTCHAR U+00A0
ENCODING 160
SWIDTH 166 0
DWIDTH 3 0
BBX 0 0 0 0
BITMAP
ENDCHAR
STARTCHAR U+00A1
ENCODING 161
SWIDTH 111 0
DWIDTH 2 0
BBX 1 5 0 -1
BITMAP
80
00
80
80
80
ENDCHAR
STARTCHAR U+00A2
ENCODING 162
SWIDTH 333 0
DWIDTH 6 0
BBX 5 5 0 0
BITMAP
20
78
80
78
20
ENDCHAR
STARTCHAR U+00A3
ENCODING 163
SWIDTH 333 0
DWIDTH 6 0
BBX 5 5 0 0
BITMAP
18
20
F8
20
F8
ENDCHAR
STARTCHAR U+00A4
ENCODING 164
SWIDTH 333 0
DWIDTH 6 0
BBX 5 5 0 0
BITMAP
88
70
50
70
88
ENDCHAR
STARTCHAR U+00A5
ENCODING 165
SWIDTH 333 0
DWIDTH 6 0
BBX 5 5 0 0
BITMAP
88
50
F8
F8
20
ENDCHAR
STARTCHAR U+00A6
ENCODING 166
SWIDTH 111 0
DWIDTH 2 0
BBX 1 6 0 -1
BITMAP
80
80
00
00
80
80
ENDCHAR
STARTCHAR U+00A7
ENCODING 167
SWIDTH 333 0
DWIDTH 6 0
BBX 5 6 0 -1
BITMAP
78
80
70
70
08
F0
ENDCHAR
STARTCHAR U+00A8
ENCODING 168
SWIDTH 222 0
DWIDTH 4 0
BBX 3 1 0 5
BITMAP
A0
ENDCHAR
STARTCHAR U+00A9
ENCODING 169
SWIDTH 222 0
DWIDTH 4 0
BBX 3 4 0 1
BITMAP
60
80
80
60
ENDCHAR
STARTCHAR U+00AA
ENCODING 170
SWIDTH 277 0
DWIDTH 5 0
BBX 4 4 0 1
BITMAP
70
90
90
70
ENDCHAR
STARTCHAR U+00AB
ENCODING 171
SWIDTH 277 0
DWIDTH 5 0
BBX 4 5 0 0
BITMAP
30
60
C0
60
30
ENDCHAR
STARTCHAR U+00AC
ENCODING 172
SWIDTH 333 0
DWIDTH 6 0
BBX 5 2 0 1
BITMAP
F8
08
ENDCHAR
STARTCHAR U+00AE
ENCODING 174
SWIDTH 222 0
DWIDTH 4 0
BBX 3 4 0 1
BITMAP
C0
A0
C0
A0
ENDCHAR
STARTCHAR U+00AF
ENCODING 175
SWIDTH 222 0
DWIDTH 4 0
BBX 3 1 0 5
BITMAP
E0
ENDCHAR
STARTCHAR U+00B0
ENCODING 176
SWIDTH 222 0
DWIDTH 4 0
BBX 3 3 0 2
BITMAP
E0
A0
E0
ENDCHAR
STARTCHAR U+00B1
ENCODING 177
SWIDTH 222 0
DWIDTH 4 0
BBX 3 4 0 0
BITMAP
40
E0
40
E0
ENDCHAR
STARTCHAR U+00B2
ENCODING 178
SWIDTH 222 0
DWIDTH 4 0
BBX 3 4 0 2
BITMAP
C0
20
40
E0
ENDCHAR
STARTCHAR U+00B3
ENCODING 179
SWIDTH 222 0
DWIDTH 4 0
BBX 3 4 0 2
BITMAP
E0
40
20
C0
ENDCHAR
STARTCHAR U+00B4
ENCODING 180
SWIDTH 166 0
DWIDTH 3 0
BBX 2 2 0 4
BITMAP
40
80
ENDCHAR
STARTCHAR U+00B6
ENCODING 182
SWIDTH 333 0
DWIDTH 6 0
BBX 5 6 0 -1
BITMAP
78
E8
E8
68
28
28
ENDCHAR
STARTCHAR U+00B7
ENCODING 183
SWIDTH 111 0
DWIDTH 2 0
BBX 1 2 0 1
BITMAP
80
80
ENDCHAR
STARTCHAR U+00B8
ENCODING 184
SWIDTH 166 0
DWIDTH 3 0
BBX 2 2 0 -2
BITMAP
40
C0
ENDCHAR
STARTCHAR U+00B9
ENCODING 185
SWIDTH 222 0
DWIDTH 4 0
BBX 3 4 0 2
BITMAP
C0
40
40
E0
ENDCHAR
STARTCHAR U+00BA
ENCODING 186
SWIDTH 277 0
DWIDTH 5 0
BBX 4 4 0 1
BITMAP
60
90
90
60
ENDCHAR
STARTCHAR U+00BB
ENCODING 187
SWIDTH 277 0
DWIDTH 5 0
BBX 4 5 0 0
BITMAP
C0
60
30
60
C0
ENDCHAR
STARTCHAR U+00BC
ENCODING 188
SWIDTH 722 0
DWIDTH 13 0
BBX 11 5 0 0
BITMAP
C200
4260
44A0
E8E0
0820
ENDCHAR
STARTCHAR U+00BD
ENCODING 189
SWIDTH 722 0
DWIDTH 13 0
BBX 11 5 0 0
BITMAP
C200
42C0
4420
E840
08E0
ENDCHAR
STARTCHAR U+00BE
ENCODING 190
SWIDTH 722 0
DWIDTH 13 0
BBX 11 5 0 0
BITMAP
E200
4260
24A0
C8E0
0820
ENDCHAR
STARTCHAR U+00BF
ENCODING 191
SWIDTH 333 0
DWIDTH 6 0
BBX 5 5 0 -1
BITMAP
20
00
60
88
70
ENDCHAR
STARTCHAR U+00C0
ENCODING 192
SWIDTH 333 0
DWIDTH 6 0
BBX 5 7 0 0
BITMAP
40
20
70
88
F8
88
88
ENDCHAR
STARTCHAR U+00C1
ENCODING 193
SWIDTH 333 0
DWIDTH 6 0
BBX 5 7 0 0
BITMAP
10
20
70
88
F8
88
88
ENDCHAR
STARTCHAR U+00C2
ENCODING 194
SWIDTH 333 0
DWIDTH 6 0
BBX 5 7 0 0
BITMAP
20
50
70
88
F8
88
88
ENDCHAR
STARTCHAR U+00C3
ENCODING 195
SWIDTH 333 0
DWIDTH 6 0
BBX 5 7 0 0
BITMAP
60
30
70
88
F8
88
88
ENDCHAR
STARTCHAR U+00C4
ENCODING 196
SWIDTH 333 0
DWIDTH 6 0
BBX 5 7 0 0
BITMAP
50
00
70
88
F8
88
88
ENDCHAR
STARTCHAR U+00C5
ENCODING 197
SWIDTH 333 0
DWIDTH 6 0
BBX 5 7 0 0
BITMAP
60
60
70
88
F8
88
88
ENDCHAR
STARTCHAR U+00C6
ENCODING 198
SWIDTH 333 0
DWIDTH 6 0
BBX 5 5 0 0
BITMAP
78
A0
F0
A0
B8
ENDCHAR
STARTCHAR U+00C7
ENCODING 199
SWIDTH 333 0
DWIDTH 6 0
BBX 5 7 0 -2
BITMAP
70
88
80
88
70
20
60
ENDCHAR
STARTCHAR U+00C8
ENCODING 200
SWIDTH 333 0
DWIDTH 6 0
BBX 5 7 0 0
BITMAP
40
20
F8
80
F0
80
F8
ENDCHAR
STARTCHAR U+00C9
ENCODING 201
SWIDTH 333 0
DWIDTH 6 0
BBX 5 7 0 0
BITMAP
10
20
F8
80
F0
80
F8
ENDCHAR
STARTCHAR U+00CA
ENCODING 202
SWIDTH 333 0
DWIDTH 6 0
BBX 5 7 0 0
BITMAP
20
50
F8
80
F0
80
F8
ENDCHAR
STARTCHAR U+00CB
ENCODING 203
SWIDTH 333 0
DWIDTH 6 0
BBX 5 7 0 0
BITMAP
50
00
F8
80
F0
80
F8
ENDCHAR
STARTCHAR U+00CC
ENCODING 204
SWIDTH 222 0
DWIDTH 4 0
BBX 3 7 0 0
BITMAP
80
40
E0
40
40
40
E0
ENDCHAR
STARTCHAR U+00CD
ENCODING 205
SWIDTH 222 0
DWIDTH 4 0
BBX 3 7 0 0
BITMAP
20
40
E0
40
40
40
E0
ENDCHAR
STARTCHAR U+00CE
ENCODING 206
SWIDTH 222 0
DWIDTH 4 0
BBX 3 7 0 0
BITMAP
40
A0
E0
40
40
40
E0
ENDCHAR
STARTCHAR U+00CF
ENCODING 207
SWIDTH 222 0
DWIDTH 4 0
BBX 3 7 0 0
BITMAP
A0
00
E0
40
40
40
E0
ENDCHAR
STARTCHAR U+00D0
ENCODING 208
SWIDTH 333 0
DWIDTH 6 0
BBX 5 5 0 0
BITMAP
70
48
E8
48
70
ENDCHAR
STARTCHAR U+00D1
ENCODING 209
SWIDTH 333 0
DWIDTH 6 0
BBX 5 7 0 0
BITMAP
60
30
88
C8
A8
98
88
ENDCHAR
STARTCHAR U+00D2
ENCODING 210
SWIDTH 333 0
DWIDTH 6 0
BBX 5 7 0 0
BITMAP
40
20
70
88
88
88
70
ENDCHAR
STARTCHAR U+00D3
ENCODING 211
SWIDTH 333 0
DWIDTH 6 0
BBX 5 7 0 0
BITMAP
10
20
70
88
88
88
70
ENDCHAR
STARTCHAR U+00D4
ENCODING 212
SWIDTH 333 0
DWIDTH 6 0
BBX 5 7 0 0
BITMAP
20
50
70
88
88
88
70
ENDCHAR
STARTCHAR U+00D5
ENCODING 213
SWIDTH 333 0
DWIDTH 6 0
BBX 5 7 0 0
BITMAP
60
30
70
88
88
88
70
ENDCHAR
STARTCHAR U+00D6
ENCODING 214
SWIDTH 333 0
DWIDTH 6 0
BBX 5 7 0 0
BITMAP
50
00
70
88
88
88
70
ENDCHAR
STARTCHAR U+00D7
ENCODING 215
SWIDTH 222 0
DWIDTH 4 0
BBX 3 3 0 1
BITMAP
A0
40
A0
ENDCHAR
STARTCHAR U+00D8
ENCODING 216
SWIDTH 333 0
DWIDTH 6 0
BBX 5 5 0 0
BITMAP
78
98
A8
C8
F0
ENDCHAR
STARTCHAR U+00D9
ENCODING 217
SWIDTH 333 0
DWIDTH 6 0
BBX 5 7 0 0
BITMAP
40
20
88
88
88
88
70
ENDCHAR
STARTCHAR U+00DA
ENCODING 218
SWIDTH 333 0
DWIDTH 6 0
BBX 5 7 0 0
BITMAP
10
20
88
88
88
88
70
ENDCHAR
STARTCHAR U+00DB
ENCODING 219
SWIDTH 333 0
DWIDTH 6 0
BBX 5 7 0 0
BITMAP
20
50
88
88
88
88
70
ENDCHAR
STARTCHAR U+00DC
ENCODING 220
SWIDTH 333 0
DWIDTH 6 0
BBX 5 7 0 0
BITMAP
50
00
88
88
88
88
70
ENDCHAR
STARTCHAR U+00DD
ENCODING 221
SWIDTH 333 0
DWIDTH 6 0
BBX 5 7 0 0
BITMAP
10
20
88
50
20
20
20
ENDCHAR
STARTCHAR U+00DE
ENCODING 222
SWIDTH 333 0
DWIDTH 6 0
BBX 5 5 0 0
BITMAP
80
F0
88
F0
80
ENDCHAR
STARTCHAR U+00DF
ENCODING 223
SWIDTH 277 0
DWIDTH 5 0
BBX 4 5 0 0
BITMAP
60
90
A0
90
A0
ENDCHAR
STARTCHAR U+00E0
ENCODING 224
SWIDTH 277 0
DWIDTH 5 0
BBX 4 6 0 0
BITMAP
40
20
70
90
90
70
ENDCHAR
STARTCHAR U+00E1
ENCODING 225
SWIDTH 277 0
DWIDTH 5 0
BBX 4 6 0 0
BITMAP
10
20
70
90
90
70
ENDCHAR
STARTCHAR U+00E2
ENCODING 226
SWIDTH 277 0
DWIDTH 5 0
BBX 4 6 0 0
BITMAP
20
50
70
90
90
70
ENDCHAR
STARTCHAR U+00E3
ENCODING 227
SWIDTH 277 0
DWIDTH 5 0
BBX 4 6 0 0
BITMAP
60
30
70
90
90
70
ENDCHAR
STARTCHAR U+00E4
ENCODING 228
SWIDTH 277 0
DWIDTH 5 0
BBX 4 6 0 0
BITMAP
50
00
70
90
90
70
ENDCHAR
STARTCHAR U+00E5
ENCODING 229
SWIDTH 277 0
DWIDTH 5 0
BBX 4 6 0 0
BITMAP
60
60
70
90
90
70
ENDCHAR
STARTCHAR U+00E6
ENCODING 230
SWIDTH 333 0
DWIDTH 6 0
BBX 5 4 0 0
BITMAP
70
B8
A0
78
ENDCHAR
STARTCHAR U+00E7
ENCODING 231
SWIDTH 277 0
DWIDTH 5 0
BBX 4 6 0 -2
BITMAP
60
90
80
70
20
60
ENDCHAR
STARTCHAR U+00E8
ENCODING 232
SWIDTH 277 0
DWIDTH 5 0
BBX 4 6 0 0
BITMAP
40
20
60
F0
80
70
ENDCHAR
STARTCHAR U+00E9
ENCODING 233
SWIDTH 277 0
DWIDTH 5 0
BBX 4 6 0 0
BITMAP
10
20
60
F0
80
70
ENDCHAR
STARTCHAR U+00EA
ENCODING 234
SWIDTH 277 0
DWIDTH 5 0
BBX 4 6 0 0
BITMAP
20
50
60
F0
80
70
ENDCHAR
STARTCHAR U+00EB
ENCODING 235
SWIDTH 277 0
DWIDTH 5 0
BBX 4 6 0 0
BITMAP
50
00
60
F0
80
70
ENDCHAR
STARTCHAR U+00EC
ENCODING 236
SWIDTH 222 0
DWIDTH 4 0
BBX 3 6 0 0
BITMAP
80
40
C0
40
40
E0
ENDCHAR
STARTCHAR U+00ED
ENCODING 237
SWIDTH 222 0
DWIDTH 4 0
BBX 3 6 0 0
BITMAP
20
40
C0
40
40
E0
ENDCHAR
STARTCHAR U+00EE
ENCODING 238
SWIDTH 222 0
DWIDTH 4 0
BBX 3 6 0 0
BITMAP
40
A0
C0
40
40
E0
ENDCHAR
STARTCHAR U+00EF
ENCODING 239
SWIDTH 222 0
DWIDTH 4 0
BBX 3 6 0 0
BITMAP
A0
00
C0
40
40
E0
ENDCHAR
STARTCHAR U+00F0
ENCODING 240
SWIDTH 277 0
DWIDTH 5 0
BBX 4 5 0 0
BITMAP
50
20
70
90
60
ENDCHAR
STARTCHAR U+00F1
ENCODING 241
SWIDTH 277 0
DWIDTH 5 0
BBX 4 6 0 0
BITMAP
60
30
E0
90
90
90
ENDCHAR
STARTCHAR U+00F2
ENCODING 242
SWIDTH 277 0
DWIDTH 5 0
BBX 4 6 0 0
BITMAP
40
20
60
90
90
60
ENDCHAR
STARTCHAR U+00F3
ENCODING 243
SWIDTH 277 0
DWIDTH 5 0
BBX 4 6 0 0
BITMAP
10
20
60
90
90
60
ENDCHAR
STARTCHAR U+00F4
ENCODING 244
SWIDTH 277 0
DWIDTH 5 0
BBX 4 6 0 0
BITMAP
20
50
60
90
90
60
ENDCHAR
STARTCHAR U+00F5
ENCODING 245
SWIDTH 277 0
DWIDTH 5 0
BBX 4 6 0 0
BITMAP
60
30
60
90
90
60
ENDCHAR
STARTCHAR U+00F6
ENCODING 246
SWIDTH 277 0
DWIDTH 5 0
BBX 4 6 0 0
BITMAP
50
00
60
90
90
60
ENDCHAR
STARTCHAR U+00F7
ENCODING 247
SWIDTH 222 0
DWIDTH 4 0
BBX 3 3 0 1
BITMAP
20
40
80
ENDCHAR
STARTCHAR U+00F8
ENCODING 248
SWIDTH 277 0
DWIDTH 5 0
BBX 4 4 0 0
BITMAP
70
B0
D0
E0
ENDCHAR
STARTCHAR U+00F9
ENCODING 249
SWIDTH 277 0
DWIDTH 5 0
BBX 4 6 0 0
BITMAP
40
20
90
90
90
70
ENDCHAR
STARTCHAR U+00FA
ENCODING 250
SWIDTH 277 0
DWIDTH 5 0
BBX 4 6 0 0
BITMAP
10
20
90
90
90
70
ENDCHAR
STARTCHAR U+00FB
ENCODING 251
SWIDTH 277 0
DWIDTH 5 0
BBX 4 6 0 0
BITMAP
20
50
90
90
90
70
ENDCHAR
STARTCHAR U+00FC
ENCODING 252
SWIDTH 277 0
DWIDTH 5 0
BBX 4 6 0 0
BITMAP
50
00
90
90
90
70
ENDCHAR
STARTCHAR U+00FD
ENCODING 253
SWIDTH 277 0
DWIDTH 5 0
BBX 4 7 0 -1
BITMAP
10
20
90
90
50
30
E0
ENDCHAR
STARTCHAR U+00FE
ENCODING 254
SWIDTH 277 0
DWIDTH 5 0
BBX 4 6 0 -1
BITMAP
80
E0
90
90
E0
80
ENDCHAR
STARTCHAR U+00FF
ENCODING 255
SWIDTH 277 0
DWIDTH 5 0
BBX 4 7 0 -1
BITMAP
50
00
90
90
50
30
E0
ENDCHAR
STARTCHAR U+0100
ENCODING 256
SWIDTH 333 0
DWIDTH 6 0
BBX 5 7 0 0
BITMAP
70
00
70
88
F8
88
88
ENDCHAR
STARTCHAR U+0101
ENCODING 257
SWIDTH 277 0
DWIDTH 5 0
BBX 4 6 0 0
BITMAP
70
00
70
90
90
70
ENDCHAR
STARTCHAR U+0102
ENCODING 258
SWIDTH 333 0
DWIDTH 6 0
BBX 5 7 0 0
BITMAP
50
70
70
88
F8
88
88
ENDCHAR
STARTCHAR U+0103
ENCODING 259
SWIDTH 277 0
DWIDTH 5 0
BBX 4 6 0 0
BITMAP
50
70
70
90
90
70
ENDCHAR
STARTCHAR U+0104
ENCODING 260
SWIDTH 333 0
DWIDTH 6 0
BBX 5 7 0 -2
BITMAP
70
88
F8
88
88
10
18
ENDCHAR
STARTCHAR U+0105
ENCODING 261
SWIDTH 277 0
DWIDTH 5 0
BBX 4 6 0 -2
BITMAP
70
90
90
70
20
30
ENDCHAR
STARTCHAR U+0106
ENCODING 262
SWIDTH 333 0
DWIDTH 6 0
BBX 5 7 0 0
BITMAP
10
20
70
88
80
88
70
ENDCHAR
STARTCHAR U+0107
ENCODING 263
SWIDTH 277 0
DWIDTH 5 0
BBX 4 6 0 0
BITMAP
10
20
60
90
80
70
ENDCHAR
STARTCHAR U+010A
ENCODING 266
SWIDTH 333 0
DWIDTH 6 0
BBX 5 7 0 0
BITMAP
20
00
70
88
80
88
70
ENDCHAR
STARTCHAR U+010B
ENCODING 267
SWIDTH 277 0
DWIDTH 5 0
BBX 4 6 0 0
BITMAP
20
00
60
90
80
70
ENDCHAR
STARTCHAR U+010C
ENCODING 268
SWIDTH 333 0
DWIDTH 6 0
BBX 5 7 0 0
BITMAP
50
20
70
88
80
88
70
ENDCHAR
STARTCHAR U+010D
ENCODING 269
SWIDTH 277 0
DWIDTH 5 0
BBX 4 6 0 0
BITMAP
50
20
60
90
80
70
ENDCHAR
STARTCHAR U+010E
ENCODING 270
SWIDTH 333 0
DWIDTH 6 0
BBX 5 7 0 0
BITMAP
50
20
F0
88
88
88
F0
ENDCHAR
STARTCHAR U+010F
ENCODING 271
SWIDTH 333 0
DWIDTH 6 0
BBX 5 6 0 0
BITMAP
08
28
60
A0
A0
60
ENDCHAR
STARTCHAR U+0110
ENCODING 272
SWIDTH 333 0
DWIDTH 6 0
BBX 5 5 0 0
BITMAP
70
48
E8
48
70
ENDCHAR
STARTCHAR U+0111
ENCODING 273
SWIDTH 333 0
DWIDTH 6 0
BBX 5 6 0 0
BITMAP
38
10
70
90
90
70
ENDCHAR
STARTCHAR U+0112
ENCODING 274
SWIDTH 333 0
DWIDTH 6 0
BBX 5 7 0 0
BITMAP
70
00
F8
80
F0
80
F8
ENDCHAR
STARTCHAR U+0113
ENCODING 275
SWIDTH 277 0
DWIDTH 5 0
BBX 4 6 0 0
BITMAP
70
00
60
F0
80
70
ENDCHAR
STARTCHAR U+0116
ENCODING 278
SWIDTH 333 0
DWIDTH 6 0
BBX 5 7 0 0
BITMAP
20
00
F8
80
F0
80
F8
ENDCHAR
STARTCHAR U+0117
ENCODING 279
SWIDTH 277 0
DWIDTH 5 0
BBX 4 6 0 0
BITMAP
20
00
60
F0
80
70
ENDCHAR
STARTCHAR U+0118
ENCODING 280
SWIDTH 333 0
DWIDTH 6 0
BBX 5 7 0 -2
BITMAP
F8
80
F0
80
F8
10
18
ENDCHAR
STARTCHAR U+0119
ENCODING 281
SWIDTH 277 0
DWIDTH 5 0
BBX 4 6 0 -2
BITMAP
60
F0
80
70
20
30
ENDCHAR
STARTCHAR U+011A
ENCODING 282
SWIDTH 333 0
DWIDTH 6 0
BBX 5 7 0 0
BITMAP
50
20
F8
80
F0
80
F8
ENDCHAR
STARTCHAR U+011B
ENCODING 283
SWIDTH 277 0
DWIDTH 5 0
BBX 4 6 0 0
BITMAP
50
20
60
F0
80
70
ENDCHAR
STARTCHAR U+011E
ENCODING 286
SWIDTH 333 0
DWIDTH 6 0
BBX 5 7 0 0
BITMAP
50
70
78
80
B8
88
70
ENDCHAR
STARTCHAR U+011F
ENCODING 287
SWIDTH 277 0
DWIDTH 5 0
BBX 4 7 0 -1
BITMAP
50
70
70
90
90
70
E0
ENDCHAR
STARTCHAR U+0120
ENCODING 288
SWIDTH 333 0
DWIDTH 6 0
BBX 5 7 0 0
BITMAP
20
00
78
80
B8
88
70
ENDCHAR
STARTCHAR U+0121
ENCODING 289
SWIDTH 277 0
DWIDTH 5 0
BBX 4 7 0 -1
BITMAP
20
00
70
90
90
70
E0
ENDCHAR
STARTCHAR U+0122
ENCODING 290
SWIDTH 333 0
DWIDTH 6 0
BBX 5 7 0 -2
BITMAP
78
80
B8
88
70
20
40
ENDCHAR
STARTCHAR U+0123
ENCODING 291
SWIDTH 277 0
DWIDTH 5 0
BBX 4 7 0 -1
BITMAP
10
20
70
90
90
70
E0
ENDCHAR
STARTCHAR U+0126
ENCODING 294
SWIDTH 333 0
DWIDTH 6 0
BBX 5 5 0 0
BITMAP
50
F8
70
50
50
ENDCHAR
STARTCHAR U+0127
ENCODING 295
SWIDTH 333 0
DWIDTH 6 0
BBX 5 6 0 0
BITMAP
E0
40
70
48
48
48
ENDCHAR
STARTCHAR U+012A
ENCODING 298
SWIDTH 222 0
DWIDTH 4 0
BBX 3 7 0 0
BITMAP
E0
00
E0
40
40
40
E0
ENDCHAR
STARTCHAR U+012B
ENCODING 299
SWIDTH 222 0
DWIDTH 4 0
BBX 3 6 0 0
BITMAP
E0
00
C0
40
40
E0
ENDCHAR
STARTCHAR U+012E
ENCODING 302
SWIDTH 222 0
DWIDTH 4 0
BBX 3 7 0 -2
BITMAP
E0
40
40
40
E0
40
60
ENDCHAR
STARTCHAR U+012F
ENCODING 303
SWIDTH 222 0
DWIDTH 4 0
BBX 3 8 0 -2
BITMAP
40
00
C0
40
40
E0
40
60
ENDCHAR
STARTCHAR U+0130
ENCODING 304
SWIDTH 222 0
DWIDTH 4 0
BBX 3 7 0 0
BITMAP
40
00
E0
40
40
40
E0
ENDCHAR
STARTCHAR U+0131
ENCODING 305
SWIDTH 222 0
DWIDTH 4 0
BBX 3 4 0 0
BITMAP
C0
40
40
E0
ENDCHAR
STARTCHAR U+0136
ENCODING 310
SWIDTH 333 0
DWIDTH 6 0
BBX 5 7 0 -2
BITMAP
88
90
A0
D0
88
20
40
ENDCHAR
STARTCHAR U+0137
ENCODING 311
SWIDTH 277 0
DWIDTH 5 0
BBX 4 7 0 -2
BITMAP
80
90
A0
E0
90
20
40
ENDCHAR
STARTCHAR U+0139
ENCODING 313
SWIDTH 333 0
DWIDTH 6 0
BBX 5 7 0 0
BITMAP
10
20
80
80
80
80
F8
ENDCHAR
STARTCHAR U+013A
ENCODING 314
SWIDTH 222 0
DWIDTH 4 0
BBX 3 7 0 0
BITMAP
20
40
C0
40
40
40
20
ENDCHAR
STARTCHAR U+013B
ENCODING 315
SWIDTH 333 0
DWIDTH 6 0
BBX 5 7 0 -2
BITMAP
80
80
80
80
F8
20
40
ENDCHAR
STARTCHAR U+013C
ENCODING 316
SWIDTH 222 0
DWIDTH 4 0
BBX 3 7 0 -2
BITMAP
C0
40
40
40
20
40
80
ENDCHAR
STARTCHAR U+013D
ENCODING 317
SWIDTH 333 0
DWIDTH 6 0
BBX 5 6 0 0
BITMAP
20
A0
80
80
80
F8
ENDCHAR
STARTCHAR U+013E
ENCODING 318
SWIDTH 277 0
DWIDTH 5 0
BBX 4 6 0 0
BITMAP
10
D0
40
40
40
20
ENDCHAR
STARTCHAR U+0141
ENCODING 321
SWIDTH 333 0
DWIDTH 6 0
BBX 5 5 0 0
BITMAP
50
60
40
C0
78
ENDCHAR
STARTCHAR U+0142
ENCODING 322
SWIDTH 222 0
DWIDTH 4 0
BBX 3 5 0 0
BITMAP
C0
60
40
C0
20
ENDCHAR
STARTCHAR U+0143
ENCODING 323
SWIDTH 333 0
DWIDTH 6 0
BBX 5 7 0 0
BITMAP
10
20
88
C8
A8
98
88
ENDCHAR
STARTCHAR U+0144
ENCODING 324
SWIDTH 277 0
DWIDTH 5 0
BBX 4 6 0 0
BITMAP
10
20
E0
90
90
90
ENDCHAR
STARTCHAR U+0145
ENCODING 325
SWIDTH 333 0
DWIDTH 6 0
BBX 5 7 0 -2
BITMAP
88
C8
A8
98
88
20
40
ENDCHAR
STARTCHAR U+0146
ENCODING 326
SWIDTH 277 0
DWIDTH 5 0
BBX 4 6 0 -2
BITMAP
E0
90
90
90
20
40
ENDCHAR
STARTCHAR U+0147
ENCODING 327
SWIDTH 333 0
DWIDTH 6 0
BBX 5 7 0 0
BITMAP
50
20
88
C8
A8
98
88
ENDCHAR
STARTCHAR U+0148
ENCODING 328
SWIDTH 277 0
DWIDTH 5 0
BBX 4 6 0 0
BITMAP
50
20
E0
90
90
90
ENDCHAR
STARTCHAR U+014A
ENCODING 330
SWIDTH 333 0
DWIDTH 6 0
BBX 5 7 0 -2
BITMAP
88
C8
A8
98
88
08
10
ENDCHAR
STARTCHAR U+014B
ENCODING 331
SWIDTH 277 0
DWIDTH 5 0
BBX 4 6 0 -2
BITMAP
E0
90
90
90
10
20
ENDCHAR
STARTCHAR U+014C
ENCODING 332
SWIDTH 333 0
DWIDTH 6 0
BBX 5 7 0 0
BITMAP
70
00
70
88
88
88
70
ENDCHAR
STARTCHAR U+014D
ENCODING 333
SWIDTH 277 0
DWIDTH 5 0
BBX 4 6 0 0
BITMAP
70
00
60
90
90
60
ENDCHAR
STARTCHAR U+0150
ENCODING 336
SWIDTH 333 0
DWIDTH 6 0
BBX 5 7 0 0
BITMAP
30
60
70
88
88
88
70
ENDCHAR
STARTCHAR U+0151
ENCODING 337
SWIDTH 277 0
DWIDTH 5 0
BBX 4 6 0 0
BITMAP
30
60
60
90
90
60
ENDCHAR
STARTCHAR U+0152
ENCODING 338
SWIDTH 333 0
DWIDTH 6 0
BBX 5 5 0 0
BITMAP
78
A0
B0
A0
78
ENDCHAR
STARTCHAR U+0153
ENCODING 339
SWIDTH 333 0
DWIDTH 6 0
BBX 5 4 0 0
BITMAP
50
B8
A0
58
ENDCHAR
STARTCHAR U+0154
ENCODING 340
SWIDTH 333 0
DWIDTH 6 0
BBX 5 7 0 0
BITMAP
10
20
F0
88
F0
90
88
ENDCHAR
STARTCHAR U+0155
ENCODING 341
SWIDTH 277 0
DWIDTH 5 0
BBX 4 6 0 0
BITMAP
10
20
E0
90
80
80
ENDCHAR
STARTCHAR U+0156
ENCODING 342
SWIDTH 333 0
DWIDTH 6 0
BBX 5 7 0 -2
BITMAP
F0
88
F0
90
88
20
40
ENDCHAR
STARTCHAR U+0157
ENCODING 343
SWIDTH 277 0
DWIDTH 5 0
BBX 4 6 0 -2
BITMAP
E0
90
80
80
20
40
ENDCHAR
STARTCHAR U+0158
ENCODING 344
SWIDTH 333 0
DWIDTH 6 0
BBX 5 7 0 0
BITMAP
50
20
F0
88
F0
90
88
ENDCHAR
STARTCHAR U+0159
ENCODING 345
SWIDTH 277 0
DWIDTH 5 0
BBX 4 6 0 0
BITMAP
50
20
E0
90
80
80
ENDCHAR
STARTCHAR U+015A
ENCODING 346
SWIDTH 333 0
DWIDTH 6 0
BBX 5 7 0 0
BITMAP
10
20
78
80
70
08
F0
ENDCHAR
STARTCHAR U+015B
ENCODING 347
SWIDTH 277 0
DWIDTH 5 0
BBX 4 6 0 0
BITMAP
10
20
70
E0
10
E0
ENDCHAR
STARTCHAR U+015E
ENCODING 350
SWIDTH 333 0
DWIDTH 6 0
BBX 5 7 0 -2
BITMAP
78
80
70
08
F0
20
60
ENDCHAR
STARTCHAR U+015F
ENCODING 351
SWIDTH 277 0
DWIDTH 5 0
BBX 4 6 0 -2
BITMAP
70
E0
10
E0
20
60
ENDCHAR
STARTCHAR U+0160
ENCODING 352
SWIDTH 333 0
DWIDTH 6 0
BBX 5 7 0 0
BITMAP
50
20
78
80
70
08
F0
ENDCHAR
STARTCHAR U+0161
ENCODING 353
SWIDTH 277 0
DWIDTH 5 0
BBX 4 6 0 0
BITMAP
50
20
70
E0
10
E0
ENDCHAR
STARTCHAR U+0162
ENCODING 354
SWIDTH 333 0
DWIDTH 6 0
BBX 5 7 0 -2
BITMAP
F8
20
20
20
20
20
60
ENDCHAR
STARTCHAR U+0163
ENCODING 355
SWIDTH 277 0
DWIDTH 5 0
BBX 4 7 0 -2
BITMAP
40
F0
40
40
30
20
60
ENDCHAR
STARTCHAR U+0164
ENCODING 356
SWIDTH 333 0
DWIDTH 6 0
BBX 5 7 0 0
BITMAP
50
20
F8
20
20
20
20
ENDCHAR
STARTCHAR U+0165
ENCODING 357
SWIDTH 333 0
DWIDTH 6 0
BBX 5 6 0 0
BITMAP
08
48
E0
40
40
30
ENDCHAR
STARTCHAR U+0166
ENCODING 358
SWIDTH 333 0
DWIDTH 6 0
BBX 5 5 0 0
BITMAP
F8
20
70
20
20
ENDCHAR
STARTCHAR U+0167
ENCODING 359
SWIDTH 277 0
DWIDTH 5 0
BBX 4 5 0 0
BITMAP
40
F0
E0
40
30
ENDCHAR
STARTCHAR U+016A
ENCODING 362
SWIDTH 333 0
DWIDTH 6 0
BBX 5 7 0 0
BITMAP
70
00
88
88
88
88
70
ENDCHAR
STARTCHAR U+016B
ENCODING 363
SWIDTH 277 0
DWIDTH 5 0
BBX 4 6 0 0
BITMAP
70
00
90
90
90
70
ENDCHAR
STARTCHAR U+016E
ENCODING 366
SWIDTH 333 0
DWIDTH 6 0
BBX 5 7 0 0
BITMAP
60
60
88
88
88
88
70
ENDCHAR
STARTCHAR U+016F
ENCODING 367
SWIDTH 277 0
DWIDTH 5 0
BBX 4 6 0 0
BITMAP
60
60
90
90
90
70
ENDCHAR
STARTCHAR U+0170
ENCODING 368
SWIDTH 333 0
DWIDTH 6 0
BBX 5 7 0 0
BITMAP
30
60
88
88
88
88
70
ENDCHAR
STARTCHAR U+0171
ENCODING 369
SWIDTH 277 0
DWIDTH 5 0
BBX 4 6 0 0
BITMAP
30
60
90
90
90
70
ENDCHAR
STARTCHAR U+0172
ENCODING 370
SWIDTH 333 0
DWIDTH 6 0
BBX 5 7 0 -2
BITMAP
88
88
88
88
70
10
18
ENDCHAR
STARTCHAR U+0173
ENCODING 371
SWIDTH 277 0
DWIDTH 5 0
BBX 4 6 0 -2
BITMAP
90
90
90
70
20
30
ENDCHAR
STARTCHAR U+0174
ENCODING 372
SWIDTH 333 0
DWIDTH 6 0
BBX 5 7 0 0
BITMAP
20
50
88
88
A8
A8
50
ENDCHAR
STARTCHAR U+0175
ENCODING 373
SWIDTH 333 0
DWIDTH 6 0
BBX 5 6 0 0
BITMAP
20
50
A8
A8
A8
50
ENDCHAR
STARTCHAR U+0176
ENCODING 374
SWIDTH 333 0
DWIDTH 6 0
BBX 5 7 0 0
BITMAP
20
50
88
50
20
20
20
ENDCHAR
STARTCHAR U+0177
ENCODING 375
SWIDTH 277 0
DWIDTH 5 0
BBX 4 7 0 -1
BITMAP
20
50
90
90
50
30
E0
ENDCHAR
STARTCHAR U+0178
ENCODING 376
SWIDTH 333 0
DWIDTH 6 0
BBX 5 7 0 0
BITMAP
50
00
88
50
20
20
20
ENDCHAR
STARTCHAR U+0179
ENCODING 377
SWIDTH 333 0
DWIDTH 6 0
BBX 5 7 0 0
BITMAP
10
20
F8
10
20
40
F8
ENDCHAR
STARTCHAR U+017A
ENCODING 378
SWIDTH 277 0
DWIDTH 5 0
BBX 4 6 0 0
BITMAP
10
20
F0
20
40
F0
ENDCHAR
STARTCHAR U+017B
ENCODING 379
SWIDTH 333 0
DWIDTH 6 0
BBX 5 7 0 0
BITMAP
20
00
F8
10
20
40
F8
ENDCHAR
STARTCHAR U+017C
ENCODING 380
SWIDTH 277 0
DWIDTH 5 0
BBX 4 6 0 0
BITMAP
20
00
F0
20
40
F0
ENDCHAR
STARTCHAR U+017D
ENCODING 381
SWIDTH 333 0
DWIDTH 6 0
BBX 5 7 0 0
BITMAP
50
20
F8
10
20
40
F8
ENDCHAR
STARTCHAR U+017E
ENCODING 382
SWIDTH 277 0
DWIDTH 5 0
BBX 4 6 0 0
BITMAP
50
20
F0
20
40
F0
ENDCHAR
STARTCHAR U+0218
ENCODING 536
SWIDTH 333 0
DWIDTH 6 0
BBX 5 7 0 -2
BITMAP
78
80
70
08
F0
20
40
ENDCHAR
STARTCHAR U+0219
ENCODING 537
SWIDTH 277 0
DWIDTH 5 0
BBX 4 6 0 -2
BITMAP
70
E0
10
E0
20
40
ENDCHAR
STARTCHAR U+021A
ENCODING 538
SWIDTH 333 0
DWIDTH 6 0
BBX 5 7 0 -2
BITMAP
F8
20
20
20
20
20
40
ENDCHAR
STARTCHAR U+021B
ENCODING 539
SWIDTH 277 0
DWIDTH 5 0
BBX 4 7 0 -2
BITMAP
40
F0
40
40
30
20
40
ENDCHAR
STARTCHAR U+0237
ENCODING 567
SWIDTH 222 0
DWIDTH 4 0
BBX 3 5 0 -1
BITMAP
60
20
20
20
C0
ENDCHAR
STARTCHAR U+02C6
ENCODING 710
SWIDTH 222 0
DWIDTH 4 0
BBX 3 2 0 4
BITMAP
40
A0
ENDCHAR
STARTCHAR U+02C7
ENCODING 711
SWIDTH 222 0
DWIDTH 4 0
BBX 3 2 0 4
BITMAP
A0
40
ENDCHAR
STARTCHAR U+02D8
ENCODING 728
SWIDTH 222 0
DWIDTH 4 0
BBX 3 2 0 4
BITMAP
A0
E0
ENDCHAR
STARTCHAR U+02D9
ENCODING 729
SWIDTH 111 0
DWIDTH 2 0
BBX 1 1 0 5
BITMAP
80
ENDCHAR
STARTCHAR U+02DA
ENCODING 730
SWIDTH 166 0
DWIDTH 3 0
BBX 2 2 0 4
BITMAP
C0
C0
ENDCHAR
STARTCHAR U+02DB
ENCODING 731
SWIDTH 166 0
DWIDTH 3 0
BBX 2 2 0 -2
BITMAP
80
C0
ENDCHAR
STARTCHAR U+02DC
ENCODING 732
SWIDTH 222 0
DWIDTH 4 0
BBX 3 2 0 4
BITMAP
C0
60
ENDCHAR
STARTCHAR U+02DD
ENCODING 733
SWIDTH 222 0
DWIDTH 4 0
BBX 3 2 0 4
BITMAP
60
C0
ENDCHAR
STARTCHAR U+0300
ENCODING 768
SWIDTH 0 0
DWIDTH 0 0
BBX 2 2 -4 4
BITMAP
80
40
ENDCHAR
STARTCHAR U+0301
ENCODING 769
SWIDTH 0 0
DWIDTH 0 0
BBX 2 2 -4 4
BITMAP
40
80
ENDCHAR
STARTCHAR U+0302
ENCODING 770
SWIDTH 0 0
DWIDTH 0 0
BBX 3 2 -5 4
BITMAP
40
A0
ENDCHAR
STARTCHAR U+0303
ENCODING 771
SWIDTH 0 0
DWIDTH 0 0
BBX 3 2 -5 4
BITMAP
C0
60
ENDCHAR
STARTCHAR U+0304
ENCODING 772
SWIDTH 0 0
DWIDTH 0 0
BBX 3 1 -5 5
BITMAP
E0
ENDCHAR
STARTCHAR U+0306
ENCODING 774
SWIDTH 0 0
DWIDTH 0 0
BBX 3 2 -5 4
BITMAP
A0
E0
ENDCHAR
STARTCHAR U+0307
ENCODING 775
SWIDTH 0 0
DWIDTH 0 0
BBX 1 1 -3 5
BITMAP
80
ENDCHAR
STARTCHAR U+0308
ENCODING 776
SWIDTH 0 0
DWIDTH 0 0
BBX 3 1 -5 5
BITMAP
A0
ENDCHAR
STARTCHAR U+030A
ENCODING 778
SWIDTH 0 0
DWIDTH 0 0
BBX 2 2 -4 4
BITMAP
C0
C0
ENDCHAR
STARTCHAR U+030B
ENCODING 779
SWIDTH 0 0
DWIDTH 0 0
BBX 3 2 -5 4
BITMAP
60
C0
ENDCHAR
STARTCHAR U+030C
ENCODING 780
SWIDTH 0 0
DWIDTH 0 0
BBX 3 2 -5 4
BITMAP
A0
40
ENDCHAR
STARTCHAR U+0312
ENCODING 786
SWIDTH 0 0
DWIDTH 0 0
BBX 2 2 -4 5
BITMAP
40
80
ENDCHAR
STARTCHAR U+0326
ENCODING 806
SWIDTH 0 0
DWIDTH 0 0
BBX 2 2 -4 -2
BITMAP
40
80
ENDCHAR
STARTCHAR U+0327
ENCODING 807
SWIDTH 0 0
DWIDTH 0 0
BBX 2 2 -4 -2
BITMAP
40
C0
ENDCHAR
STARTCHAR U+0328
ENCODING 808
SWIDTH 0 0
DWIDTH 0 0
BBX 2 2 -4 -2
BITMAP
80
C0
ENDCHAR
STARTCHAR U+0335
ENCODING 821
SWIDTH 0 0
DWIDTH 0 0
BBX 3 1 -5 2
BITMAP
E0
ENDCHAR
STARTCHAR U+0336
ENCODING 822
SWIDTH 0 0
DWIDTH 0 0
BBX 5 1 -7 2
BITMAP
F8
ENDCHAR
STARTCHAR U+0337
ENCODING 823
SWIDTH 0 0
DWIDTH 0 0
BBX 3 3 -5 1
BITMAP
20
40
80
ENDCHAR
STARTCHAR U+0338
ENCODING 824
SWIDTH 0 0
DWIDTH 0 0
BBX 5 5 -7 0
BITMAP
08
10
20
40
80
ENDCHAR
STARTCHAR U+0394
ENCODING 916
SWIDTH 333 0
DWIDTH 6 0
BBX 5 5 0 0
BITMAP
20
50
88
88
F8
ENDCHAR
STARTCHAR U+039C
ENCODING 924
SWIDTH 277 0
DWIDTH 5 0
BBX 4 5 0 -1
BITMAP
90
90
90
F0
80
ENDCHAR
STARTCHAR U+03A0
ENCODING 928
SWIDTH 277 0
DWIDTH 5 0
BBX 4 4 0 0
BITMAP
F0
60
60
60
ENDCHAR
STARTCHAR U+03A9
ENCODING 937
SWIDTH 333 0
DWIDTH 6 0
BBX 5 5 0 0
BITMAP
70
88
88
50
D8
ENDCHAR
STARTCHAR U+03B4
ENCODING 948
SWIDTH 333 0
DWIDTH 6 0
BBX 5 5 0 0
BITMAP
20
50
88
88
F8
ENDCHAR
STARTCHAR U+03BC
ENCODING 956
SWIDTH 277 0
DWIDTH 5 0
BBX 4 4 0 -1
BITMAP
90
90
90
70
ENDCHAR
STARTCHAR U+03C0
ENCODING 960
SWIDTH 277 0
DWIDTH 5 0
BBX 4 4 0 0
BITMAP
F0
60
60
60
ENDCHAR
STARTCHAR U+03C9
ENCODING 969
SWIDTH 333 0
DWIDTH 6 0
BBX 5 5 0 0
BITMAP
70
88
88
50
D8
ENDCHAR
STARTCHAR U+1E80
ENCODING 7808
SWIDTH 333 0
DWIDTH 6 0
BBX 5 7 0 0
BITMAP
40
20
88
88
A8
A8
50
ENDCHAR
STARTCHAR U+1E81
ENCODING 7809
SWIDTH 333 0
DWIDTH 6 0
BBX 5 6 0 0
BITMAP
40
20
A8
A8
A8
50
ENDCHAR
STARTCHAR U+1E82
ENCODING 7810
SWIDTH 333 0
DWIDTH 6 0
BBX 5 7 0 0
BITMAP
10
20
88
88
A8
A8
50
ENDCHAR
STARTCHAR U+1E83
ENCODING 7811
SWIDTH 333 0
DWIDTH 6 0
BBX 5 6 0 0
BITMAP
10
20
A8
A8
A8
50
ENDCHAR
STARTCHAR U+1E84
ENCODING 7812
SWIDTH 333 0
DWIDTH 6 0
BBX 5 7 0 0
BITMAP
50
00
88
88
A8
A8
50
ENDCHAR
STARTCHAR U+1E85
ENCODING 7813
SWIDTH 333 0
DWIDTH 6 0
BBX 5 6 0 0
BITMAP
50
00
A8
A8
A8
50
ENDCHAR
STARTCHAR U+1E9E
ENCODING 7838
SWIDTH 333 0
DWIDTH 6 0
BBX 5 5 0 0
BITMAP
70
88
B0
88
B0
ENDCHAR
STARTCHAR U+1EF2
ENCODING 7922
SWIDTH 333 0
DWIDTH 6 0
BBX 5 7 0 0
BITMAP
40
20
88
50
20
20
20
ENDCHAR
STARTCHAR U+1EF3
ENCODING 7923
SWIDTH 277 0
DWIDTH 5 0
BBX 4 7 0 -1
BITMAP
40
20
90
90
50
30
E0
ENDCHAR
STARTCHAR U+2013
ENCODING 8211
SWIDTH 277 0
DWIDTH 5 0
BBX 4 1 0 2
BITMAP
F0
ENDCHAR
STARTCHAR U+2014
ENCODING 8212
SWIDTH 333 0
DWIDTH 6 0
BBX 5 1 0 2
BITMAP
F8
ENDCHAR
STARTCHAR U+2018
ENCODING 8216
SWIDTH 166 0
DWIDTH 3 0
BBX 2 3 0 2
BITMAP
40
80
80
ENDCHAR
STARTCHAR U+2019
ENCODING 8217
SWIDTH 166 0
DWIDTH 3 0
BBX 2 3 0 2
BITMAP
40
40
80
ENDCHAR
STARTCHAR U+201A
ENCODING 8218
SWIDTH 166 0
DWIDTH 3 0
BBX 2 3 0 -1
BITMAP
40
40
80
ENDCHAR
STARTCHAR U+201C
ENCODING 8220
SWIDTH 222 0
DWIDTH 4 0
BBX 3 3 0 2
BITMAP
60
C0
C0
ENDCHAR
STARTCHAR U+201D
ENCODING 8221
SWIDTH 222 0
DWIDTH 4 0
BBX 3 3 0 2
BITMAP
60
60
C0
ENDCHAR
STARTCHAR U+201E
ENCODING 8222
SWIDTH 222 0
DWIDTH 4 0
BBX 3 3 0 -1
BITMAP
60
60
C0
ENDCHAR
STARTCHAR U+2020
ENCODING 8224
SWIDTH 222 0
DWIDTH 4 0
BBX 3 5 0 0
BITMAP
40
E0
40
40
40
ENDCHAR
STARTCHAR U+2021
ENCODING 8225
SWIDTH 222 0
DWIDTH 4 0
BBX 3 5 0 0
BITMAP
40
E0
40
E0
40
ENDCHAR
STARTCHAR U+2022
ENCODING 8226
SWIDTH 166 0
DWIDTH 3 0
BBX 2 2 0 1
BITMAP
C0
C0
ENDCHAR
STARTCHAR U+2026
ENCODING 8230
SWIDTH 333 0
DWIDTH 6 0
BBX 5 2 0 0
BITMAP
A8
A8
ENDCHAR
STARTCHAR U+2030
ENCODING 8240
SWIDTH 333 0
DWIDTH 6 0
BBX 5 5 0 0
BITMAP
C8
D0
20
78
B8
ENDCHAR
STARTCHAR U+2039
ENCODING 8249
SWIDTH 222 0
DWIDTH 4 0
BBX 3 5 0 0
BITMAP
20
40
80
40
20
ENDCHAR
STARTCHAR U+203A
ENCODING 8250
SWIDTH 222 0
DWIDTH 4 0
BBX 3 5 0 0
BITMAP
80
40
20
40
80
ENDCHAR
STARTCHAR U+2044
ENCODING 8260
SWIDTH 222 0
DWIDTH 4 0
BBX 3 5 0 0
BITMAP
20
20
40
80
80
ENDCHAR
STARTCHAR U+2070
ENCODING 8304
SWIDTH 222 0
DWIDTH 4 0
BBX 3 4 0 2
BITMAP
40
A0
A0
40
ENDCHAR
STARTCHAR U+2074
ENCODING 8308
SWIDTH 222 0
DWIDTH 4 0
BBX 3 4 0 2
BITMAP
60
A0
E0
20
ENDCHAR
STARTCHAR U+2075
ENCODING 8309
SWIDTH 222 0
DWIDTH 4 0
BBX 3 4 0 2
BITMAP
E0
C0
20
C0
ENDCHAR
STARTCHAR U+2076
ENCODING 8310
SWIDTH 222 0
DWIDTH 4 0
BBX 3 4 0 2
BITMAP
60
80
E0
40
ENDCHAR
STARTCHAR U+2077
ENCODING 8311
SWIDTH 222 0
DWIDTH 4 0
BBX 3 4 0 2
BITMAP
E0
20
40
40
ENDCHAR
STARTCHAR U+2078
ENCODING 8312
SWIDTH 222 0
DWIDTH 4 0
BBX 3 4 0 2
BITMAP
40
E0
A0
40
ENDCHAR
STARTCHAR U+2079
ENCODING 8313
SWIDTH 222 0
DWIDTH 4 0
BBX 3 4 0 2
BITMAP
40
E0
20
C0
ENDCHAR
STARTCHAR U+207D
ENCODING 8317
SWIDTH 222 0
DWIDTH 4 0
BBX 3 5 0 2
BITMAP
60
80
80
80
60
ENDCHAR
STARTCHAR U+207E
ENCODING 8318
SWIDTH 222 0
DWIDTH 4 0
BBX 3 5 0 2
BITMAP
C0
20
20
20
C0
ENDCHAR
STARTCHAR U+2080
ENCODING 8320
SWIDTH 222 0
DWIDTH 4 0
BBX 3 4 0 -1
BITMAP
40
A0
A0
40
ENDCHAR
STARTCHAR U+2081
ENCODING 8321
SWIDTH 222 0
DWIDTH 4 0
BBX 3 4 0 -1
BITMAP
C0
40
40
E0
ENDCHAR
STARTCHAR U+2082
ENCODING 8322
SWIDTH 222 0
DWIDTH 4 0
BBX 3 4 0 -1
BITMAP
C0
20
40
E0
ENDCHAR
STARTCHAR U+2083
ENCODING 8323
SWIDTH 222 0
DWIDTH 4 0
BBX 3 4 0 -1
BITMAP
E0
40
20
C0
ENDCHAR
STARTCHAR U+2084
ENCODING 8324
SWIDTH 222 0
DWIDTH 4 0
BBX 3 4 0 -1
BITMAP
60
A0
E0
20
ENDCHAR
STARTCHAR U+2085
ENCODING 8325
SWIDTH 222 0
DWIDTH 4 0
BBX 3 4 0 -1
BITMAP
E0
C0
20
C0
ENDCHAR
STARTCHAR U+2086
ENCODING 8326
SWIDTH 222 0
DWIDTH 4 0
BBX 3 4 0 -1
BITMAP
60
80
E0
40
ENDCHAR
STARTCHAR U+2087
ENCODING 8327
SWIDTH 222 0
DWIDTH 4 0
BBX 3 4 0 -1
BITMAP
E0
20
40
40
ENDCHAR
STARTCHAR U+2088
ENCODING 8328
SWIDTH 222 0
DWIDTH 4 0
BBX 3 4 0 -1
BITMAP
40
E0
A0
40
ENDCHAR
STARTCHAR U+2089
ENCODING 8329
SWIDTH 222 0
DWIDTH 4 0
BBX 3 4 0 -1
BITMAP
40
E0
20
C0
ENDCHAR
STARTCHAR U+208D
ENCODING 8333
SWIDTH 222 0
DWIDTH 4 0
BBX 3 5 0 -2
BITMAP
60
80
80
80
60
ENDCHAR
STARTCHAR U+208E
ENCODING 8334
SWIDTH 222 0
DWIDTH 4 0
BBX 3 5 0 -2
BITMAP
C0
20
20
20
C0
ENDCHAR
STARTCHAR U+20AC
ENCODING 8364
SWIDTH 333 0
DWIDTH 6 0
BBX 5 5 0 0
BITMAP
38
F0
40
F0
38
ENDCHAR
STARTCHAR U+2122
ENCODING 8482
SWIDTH 333 0
DWIDTH 6 0
BBX 5 3 0 2
BITMAP
E8
78
78
ENDCHAR
STARTCHAR U+215B
ENCODING 8539
SWIDTH 722 0
DWIDTH 13 0
BBX 11 5 0 0
BITMAP
C200
4240
44E0
E8A0
0840
ENDCHAR
STARTCHAR U+215C
ENCODING 8540
SWIDTH 722 0
DWIDTH 13 0
BBX 11 5 0 0
BITMAP
E200
4240
24E0
C8A0
0840
ENDCHAR
STARTCHAR U+215D
ENCODING 8541
SWIDTH 722 0
DWIDTH 13 0
BBX 11 5 0 0
BITMAP
E200
C240
24E0
C8A0
0840
ENDCHAR
STARTCHAR U+215E
ENCODING 8542
SWIDTH 722 0
DWIDTH 13 0
BBX 11 5 0 0
BITMAP
E200
2240
44E0
48A0
0840
ENDCHAR
STARTCHAR U+2190
ENCODING 8592
SWIDTH 333 0
DWIDTH 6 0
BBX 5 5 0 0
BITMAP
20
40
F8
40
20
ENDCHAR
STARTCHAR U+2191
ENCODING 8593
SWIDTH 333 0
DWIDTH 6 0
BBX 5 5 0 0
BITMAP
20
70
A8
20
20
ENDCHAR
STARTCHAR U+2192
ENCODING 8594
SWIDTH 333 0
DWIDTH 6 0
BBX 6 5 -1 0
BITMAP
10
08
FC
08
10
ENDCHAR
STARTCHAR U+2193
ENCODING 8595
SWIDTH 333 0
DWIDTH 6 0
BBX 5 5 0 0
BITMAP
20
20
A8
70
20
ENDCHAR
STARTCHAR U+2202
ENCODING 8706
SWIDTH 333 0
DWIDTH 6 0
BBX 5 5 0 0
BITMAP
60
10
68
88
70
ENDCHAR
STARTCHAR U+2205
ENCODING 8709
SWIDTH 333 0
DWIDTH 6 0
BBX 6 5 0 0
BITMAP
0C
70
A8
70
80
ENDCHAR
STARTCHAR U+220F
ENCODING 8719
SWIDTH 333 0
DWIDTH 6 0
BBX 5 5 0 0
BITMAP
F8
88
88
88
88
ENDCHAR
STARTCHAR U+2211
ENCODING 8721
SWIDTH 333 0
DWIDTH 6 0
BBX 5 5 0 0
BITMAP
F8
40
20
40
F8
ENDCHAR
STARTCHAR U+2212
ENCODING 8722
SWIDTH 222 0
DWIDTH 4 0
BBX 3 1 0 2
BITMAP
E0
ENDCHAR
STARTCHAR U+221A
ENCODING 8730
SWIDTH 333 0
DWIDTH 6 0
BBX 5 6 0 -1
BITMAP
18
20
20
20
A0
40
ENDCHAR
STARTCHAR U+221E
ENCODING 8734
SWIDTH 333 0
DWIDTH 6 0
BBX 5 3 0 1
BITMAP
50
A8
50
ENDCHAR
STARTCHAR U+222B
ENCODING 8747
SWIDTH 333 0
DWIDTH 6 0
BBX 5 6 0 -1
BITMAP
10
28
20
20
A0
40
ENDCHAR
STARTCHAR U+2248
ENCODING 8776
SWIDTH 333 0
DWIDTH 6 0
BBX 5 4 0 0
BITMAP
40
E8
B8
10
ENDCHAR
STARTCHAR U+2260
ENCODING 8800
SWIDTH 222 0
DWIDTH 4 0
BBX 3 5 0 0
BITMAP
20
E0
40
E0
80
ENDCHAR
STARTCHAR U+2264
ENCODING 8804
SWIDTH 222 0
DWIDTH 4 0
BBX 3 4 0 0
BITMAP
60
80
60
E0
ENDCHAR
STARTCHAR U+2265
ENCODING 8805
SWIDTH 222 0
DWIDTH 4 0
BBX 3 4 -1 0
BITMAP
E0
00
E0
E0
ENDCHAR
STARTCHAR U+25CA
ENCODING 9674
SWIDTH 333 0
DWIDTH 6 0
BBX 5 5 0 0
BITMAP
20
50
88
50
20
ENDCHAR
ENDFONT
